<svg id="visual" viewBox="0 0 900 600" width="900" height="600" xmlns="http://www.w3.org/2000/svg" xmlns:xlink="http://www.w3.org/1999/xlink" version="1.1"><g stroke-width="1" stroke-linejoin="bevel"><path d="M480 288L423 203L406 272Z" fill="#000b2a" stroke="#000b2a"></path><path d="M480 288L465 176L423 203Z" fill="#3c2743" stroke="#3c2743"></path><path d="M480 288L573 209L465 176Z" fill="#d7caa8" stroke="#d7caa8"></path><path d="M324 128L332 166L403 69Z" fill="#9b6c6a" stroke="#9b6c6a"></path><path d="M423 203L332 166L406 272Z" fill="#bd9983" stroke="#bd9983"></path><path d="M332 166L331 330L406 272Z" fill="#211a37" stroke="#211a37"></path><path d="M406 272L395 411L480 288Z" fill="#3c2743" stroke="#3c2743"></path><path d="M576 383L590 330L480 288Z" fill="#57354d" stroke="#57354d"></path><path d="M480 288L590 330L573 209Z" fill="#3c2743" stroke="#3c2743"></path><path d="M573 209L530 97L465 176Z" fill="#6f4657" stroke="#6f4657"></path><path d="M403 69L332 166L423 203Z" fill="#000b2a" stroke="#000b2a"></path><path d="M403 69L423 203L465 176Z" fill="#57354d" stroke="#57354d"></path><path d="M332 166L215 236L331 330Z" fill="#cbb194" stroke="#cbb194"></path><path d="M331 330L395 411L406 272Z" fill="#211a37" stroke="#211a37"></path><path d="M573 209L586 131L530 97Z" fill="#6f4657" stroke="#6f4657"></path><path d="M662 186L586 131L573 209Z" fill="#ad8275" stroke="#ad8275"></path><path d="M530 97L403 69L465 176Z" fill="#865860" stroke="#865860"></path><path d="M527 429L576 383L480 288Z" fill="#d7caa8" stroke="#d7caa8"></path><path d="M395 411L527 429L480 288Z" fill="#211a37" stroke="#211a37"></path><path d="M331 330L320 402L395 411Z" fill="#cbb194" stroke="#cbb194"></path><path d="M395 411L422 474L527 429Z" fill="#d7caa8" stroke="#d7caa8"></path><path d="M213 411L320 402L331 330Z" fill="#865860" stroke="#865860"></path><path d="M683 335L662 186L590 330Z" fill="#865860" stroke="#865860"></path><path d="M590 330L662 186L573 209Z" fill="#57354d" stroke="#57354d"></path><path d="M317 520L422 474L395 411Z" fill="#3c2743" stroke="#3c2743"></path><path d="M324 128L215 236L332 166Z" fill="#cbb194" stroke="#cbb194"></path><path d="M675 408L590 330L576 383Z" fill="#d7caa8" stroke="#d7caa8"></path><path d="M675 408L683 335L590 330Z" fill="#211a37" stroke="#211a37"></path><path d="M403 69L317 0L324 128Z" fill="#bd9983" stroke="#bd9983"></path><path d="M324 128L181 75L215 236Z" fill="#ad8275" stroke="#ad8275"></path><path d="M521 0L403 0L403 69Z" fill="#57354d" stroke="#57354d"></path><path d="M521 0L403 69L530 97Z" fill="#000b2a" stroke="#000b2a"></path><path d="M570 0L530 97L586 131Z" fill="#bd9983" stroke="#bd9983"></path><path d="M570 0L521 0L530 97Z" fill="#211a37" stroke="#211a37"></path><path d="M681 71L570 0L586 131Z" fill="#d7caa8" stroke="#d7caa8"></path><path d="M527 429L590 485L576 383Z" fill="#865860" stroke="#865860"></path><path d="M473 530L590 485L527 429Z" fill="#000b2a" stroke="#000b2a"></path><path d="M590 485L675 408L576 383Z" fill="#ad8275" stroke="#ad8275"></path><path d="M403 0L317 0L403 69Z" fill="#6f4657" stroke="#6f4657"></path><path d="M79 216L171 297L215 236Z" fill="#9b6c6a" stroke="#9b6c6a"></path><path d="M215 236L171 297L331 330Z" fill="#000b2a" stroke="#000b2a"></path><path d="M385 600L473 530L422 474Z" fill="#d7caa8" stroke="#d7caa8"></path><path d="M317 520L395 411L320 402Z" fill="#000b2a" stroke="#000b2a"></path><path d="M422 474L473 530L527 429Z" fill="#211a37" stroke="#211a37"></path><path d="M171 297L213 411L331 330Z" fill="#3c2743" stroke="#3c2743"></path><path d="M811 67L681 71L662 186Z" fill="#865860" stroke="#865860"></path><path d="M662 186L681 71L586 131Z" fill="#211a37" stroke="#211a37"></path><path d="M213 411L317 520L320 402Z" fill="#cbb194" stroke="#cbb194"></path><path d="M317 0L181 75L324 128Z" fill="#000b2a" stroke="#000b2a"></path><path d="M795 414L770 265L683 335Z" fill="#000b2a" stroke="#000b2a"></path><path d="M683 335L770 265L662 186Z" fill="#9b6c6a" stroke="#9b6c6a"></path><path d="M181 75L132 120L215 236Z" fill="#6f4657" stroke="#6f4657"></path><path d="M317 0L202 0L181 75Z" fill="#57354d" stroke="#57354d"></path><path d="M181 75L93 0L132 120Z" fill="#ad8275" stroke="#ad8275"></path><path d="M900 335L809 228L770 265Z" fill="#ad8275" stroke="#ad8275"></path><path d="M770 265L809 228L662 186Z" fill="#57354d" stroke="#57354d"></path><path d="M260 600L385 600L317 520Z" fill="#d7caa8" stroke="#d7caa8"></path><path d="M317 520L385 600L422 474Z" fill="#000b2a" stroke="#000b2a"></path><path d="M473 530L526 600L590 485Z" fill="#000b2a" stroke="#000b2a"></path><path d="M385 600L526 600L473 530Z" fill="#6f4657" stroke="#6f4657"></path><path d="M590 485L711 511L675 408Z" fill="#d7caa8" stroke="#d7caa8"></path><path d="M213 411L172 479L317 520Z" fill="#cbb194" stroke="#cbb194"></path><path d="M85 402L172 479L213 411Z" fill="#57354d" stroke="#57354d"></path><path d="M85 402L213 411L171 297Z" fill="#ad8275" stroke="#ad8275"></path><path d="M811 67L723 0L681 71Z" fill="#d7caa8" stroke="#d7caa8"></path><path d="M681 71L723 0L570 0Z" fill="#6f4657" stroke="#6f4657"></path><path d="M679 600L711 511L590 485Z" fill="#ad8275" stroke="#ad8275"></path><path d="M675 408L795 414L683 335Z" fill="#211a37" stroke="#211a37"></path><path d="M132 120L79 216L215 236Z" fill="#3c2743" stroke="#3c2743"></path><path d="M79 216L77 316L171 297Z" fill="#ad8275" stroke="#ad8275"></path><path d="M526 600L589 600L590 485Z" fill="#000b2a" stroke="#000b2a"></path><path d="M781 485L795 414L675 408Z" fill="#cbb194" stroke="#cbb194"></path><path d="M77 316L85 402L171 297Z" fill="#cbb194" stroke="#cbb194"></path><path d="M192 600L260 600L172 479Z" fill="#9b6c6a" stroke="#9b6c6a"></path><path d="M172 479L260 600L317 520Z" fill="#9b6c6a" stroke="#9b6c6a"></path><path d="M809 228L811 67L662 186Z" fill="#865860" stroke="#865860"></path><path d="M818 600L781 485L711 511Z" fill="#57354d" stroke="#57354d"></path><path d="M711 511L781 485L675 408Z" fill="#d7caa8" stroke="#d7caa8"></path><path d="M589 600L679 600L590 485Z" fill="#d7caa8" stroke="#d7caa8"></path><path d="M0 379L83 473L85 402Z" fill="#bd9983" stroke="#bd9983"></path><path d="M85 402L83 473L172 479Z" fill="#9b6c6a" stroke="#9b6c6a"></path><path d="M811 67L807 0L723 0Z" fill="#211a37" stroke="#211a37"></path><path d="M0 135L0 213L79 216Z" fill="#000b2a" stroke="#000b2a"></path><path d="M202 0L93 0L181 75Z" fill="#211a37" stroke="#211a37"></path><path d="M132 600L192 600L172 479Z" fill="#ad8275" stroke="#ad8275"></path><path d="M0 135L79 216L132 120Z" fill="#000b2a" stroke="#000b2a"></path><path d="M79 216L0 298L77 316Z" fill="#865860" stroke="#865860"></path><path d="M77 316L0 379L85 402Z" fill="#d7caa8" stroke="#d7caa8"></path><path d="M0 213L0 298L79 216Z" fill="#57354d" stroke="#57354d"></path><path d="M900 335L900 180L809 228Z" fill="#6f4657" stroke="#6f4657"></path><path d="M809 228L900 180L811 67Z" fill="#865860" stroke="#865860"></path><path d="M811 67L900 61L807 0Z" fill="#6f4657" stroke="#6f4657"></path><path d="M900 335L770 265L795 414Z" fill="#6f4657" stroke="#6f4657"></path><path d="M900 434L900 335L795 414Z" fill="#865860" stroke="#865860"></path><path d="M93 0L0 135L132 120Z" fill="#211a37" stroke="#211a37"></path><path d="M0 298L0 379L77 316Z" fill="#865860" stroke="#865860"></path><path d="M83 473L132 600L172 479Z" fill="#cbb194" stroke="#cbb194"></path><path d="M0 600L132 600L83 473Z" fill="#cbb194" stroke="#cbb194"></path><path d="M900 180L900 61L811 67Z" fill="#ad8275" stroke="#ad8275"></path><path d="M900 488L900 434L781 485Z" fill="#6f4657" stroke="#6f4657"></path><path d="M781 485L900 434L795 414Z" fill="#bd9983" stroke="#bd9983"></path><path d="M679 600L818 600L711 511Z" fill="#6f4657" stroke="#6f4657"></path><path d="M818 600L900 488L781 485Z" fill="#000b2a" stroke="#000b2a"></path><path d="M900 61L900 0L807 0Z" fill="#bd9983" stroke="#bd9983"></path><path d="M93 0L0 0L0 135Z" fill="#57354d" stroke="#57354d"></path><path d="M0 379L0 504L83 473Z" fill="#3c2743" stroke="#3c2743"></path><path d="M818 600L900 600L900 488Z" fill="#57354d" stroke="#57354d"></path><path d="M0 504L0 600L83 473Z" fill="#3c2743" stroke="#3c2743"></path></g></svg>